<svg id="visual" viewBox="0 0 960 540" width="960" height="540" xmlns="http://www.w3.org/2000/svg" xmlns:xlink="http://www.w3.org/1999/xlink" version="1.1"><rect x="0" y="0" width="960" height="540" fill="#3b82f6"></rect><defs><linearGradient id="grad1_0" x1="43.8%" y1="0%" x2="100%" y2="100%"><stop offset="14.444444444444446%" stop-color="#bfdbfe" stop-opacity="1"></stop><stop offset="85.55555555555554%" stop-color="#bfdbfe" stop-opacity="1"></stop></linearGradient></defs><defs><linearGradient id="grad1_1" x1="43.8%" y1="0%" x2="100%" y2="100%"><stop offset="14.444444444444446%" stop-color="#bfdbfe" stop-opacity="1"></stop><stop offset="85.55555555555554%" stop-color="#92befd" stop-opacity="1"></stop></linearGradient></defs><defs><linearGradient id="grad1_2" x1="43.8%" y1="0%" x2="100%" y2="100%"><stop offset="14.444444444444446%" stop-color="#67a1fb" stop-opacity="1"></stop><stop offset="85.55555555555554%" stop-color="#92befd" stop-opacity="1"></stop></linearGradient></defs><defs><linearGradient id="grad1_3" x1="43.8%" y1="0%" x2="100%" y2="100%"><stop offset="14.444444444444446%" stop-color="#67a1fb" stop-opacity="1"></stop><stop offset="85.55555555555554%" stop-color="#3b82f6" stop-opacity="1"></stop></linearGradient></defs><defs><linearGradient id="grad2_0" x1="0%" y1="0%" x2="56.3%" y2="100%"><stop offset="14.444444444444446%" stop-color="#bfdbfe" stop-opacity="1"></stop><stop offset="85.55555555555554%" stop-color="#bfdbfe" stop-opacity="1"></stop></linearGradient></defs><defs><linearGradient id="grad2_1" x1="0%" y1="0%" x2="56.3%" y2="100%"><stop offset="14.444444444444446%" stop-color="#92befd" stop-opacity="1"></stop><stop offset="85.55555555555554%" stop-color="#bfdbfe" stop-opacity="1"></stop></linearGradient></defs><defs><linearGradient id="grad2_2" x1="0%" y1="0%" x2="56.3%" y2="100%"><stop offset="14.444444444444446%" stop-color="#92befd" stop-opacity="1"></stop><stop offset="85.55555555555554%" stop-color="#67a1fb" stop-opacity="1"></stop></linearGradient></defs><defs><linearGradient id="grad2_3" x1="0%" y1="0%" x2="56.3%" y2="100%"><stop offset="14.444444444444446%" stop-color="#3b82f6" stop-opacity="1"></stop><stop offset="85.55555555555554%" stop-color="#67a1fb" stop-opacity="1"></stop></linearGradient></defs><g transform="translate(960, 0)"><path d="M0 405C-35.8 381.2 -71.7 357.4 -112.8 347.1C-153.9 336.8 -200.4 340 -233.4 321.2C-266.3 302.3 -285.9 261.4 -311.5 226.3C-337 191.2 -368.6 161.9 -385.2 125.2C-401.8 88.4 -403.4 44.2 -405 0L0 0Z" fill="#5191f9"></path><path d="M0 303.8C-26.9 285.9 -53.7 268.1 -84.6 260.4C-115.4 252.6 -150.3 255 -175 240.9C-199.8 226.7 -214.4 196.1 -233.6 169.7C-252.8 143.4 -276.4 121.4 -288.9 93.9C-301.3 66.3 -302.5 33.2 -303.7 0L0 0Z" fill="#7cb0fc"></path><path d="M0 202.5C-17.9 190.6 -35.8 178.7 -56.4 173.6C-77 168.4 -100.2 170 -116.7 160.6C-133.2 151.2 -143 130.7 -155.7 113.1C-168.5 95.6 -184.3 80.9 -192.6 62.6C-200.9 44.2 -201.7 22.1 -202.5 0L0 0Z" fill="#a8cdfe"></path><path d="M0 101.3C-9 95.3 -17.9 89.4 -28.2 86.8C-38.5 84.2 -50.1 85 -58.3 80.3C-66.6 75.6 -71.5 65.4 -77.9 56.6C-84.3 47.8 -92.1 40.5 -96.3 31.3C-100.4 22.1 -100.8 11.1 -101.2 0L0 0Z" fill="#bfdbfe"></path></g><g transform="translate(0, 540)"><path d="M0 -405C32.9 -376.2 65.7 -347.3 110.9 -341.4C156.2 -335.5 213.8 -352.5 238.1 -327.7C262.3 -302.8 253.3 -236 270.2 -196.3C287.1 -156.6 329.9 -144.1 356.6 -115.9C383.4 -87.7 394.2 -43.8 405 0L0 0Z" fill="#5191f9"></path><path d="M0 -303.7C24.6 -282.1 49.3 -260.5 83.2 -256.1C117.1 -251.6 160.3 -264.4 178.5 -245.7C196.8 -227.1 190 -177 202.7 -147.2C215.3 -117.5 247.4 -108.1 267.5 -86.9C287.6 -65.8 295.7 -32.9 303.8 0L0 0Z" fill="#7cb0fc"></path><path d="M0 -202.5C16.4 -188.1 32.9 -173.7 55.5 -170.7C78.1 -167.8 106.9 -176.3 119 -163.8C131.2 -151.4 126.7 -118 135.1 -98.2C143.5 -78.3 164.9 -72 178.3 -57.9C191.7 -43.8 197.1 -21.9 202.5 0L0 0Z" fill="#a8cdfe"></path><path d="M0 -101.2C8.2 -94 16.4 -86.8 27.7 -85.4C39 -83.9 53.4 -88.1 59.5 -81.9C65.6 -75.7 63.3 -59 67.6 -49.1C71.8 -39.2 82.5 -36 89.2 -29C95.9 -21.9 98.6 -11 101.3 0L0 0Z" fill="#bfdbfe"></path></g></svg>